<?xml version="1.0" standalone="no"?>
<!DOCTYPE svg PUBLIC "-//W3C//DTD SVG 20010904//EN"
 "http://www.w3.org/TR/2001/REC-SVG-20010904/DTD/svg10.dtd">
<svg version="1.0" xmlns="http://www.w3.org/2000/svg"
 width="500.000000pt" height="500.000000pt" viewBox="0 0 500.000000 500.000000"
 preserveAspectRatio="xMidYMid meet">
<metadata>
Created by potrace 1.14, written by Peter Selinger 2001-2017
</metadata>
<g transform="translate(0.000000,500.000000) scale(0.100000,-0.100000)"
fill="#000000" stroke="none">
<path d="M0 2500 l0 -2500 2500 0 2500 0 0 2500 0 2500 -2500 0 -2500 0 0
-2500z m1400 1179 c-150 -11 -244 -46 -326 -121 -247 -228 -109 -694 358
-1206 520 -570 1331 -1012 1863 -1014 216 -1 351 56 453 193 7 10 21 41 32 70
14 40 19 47 20 28 0 -45 -67 -165 -113 -203 -110 -88 -233 -121 -436 -114
-405 15 -948 251 -1411 613 l-85 67 -5 -49 -5 -48 -135 0 -135 0 -5 176 -5
177 -94 103 c-274 304 -430 586 -461 834 -39 314 151 505 500 503 l95 -1 -105
-8z m262 -78 c185 -33 381 -102 599 -211 114 -57 340 -189 379 -222 l25 -20
-30 18 c-245 150 -485 257 -704 316 -104 28 -131 32 -261 32 -174 1 -224 -12
-299 -80 -171 -154 -96 -464 207 -849 81 -102 330 -348 455 -447 429 -341 874
-557 1240 -599 157 -18 283 7 373 76 38 29 84 116 84 159 1 26 2 28 11 13 13
-22 -5 -145 -27 -190 -68 -134 -204 -200 -409 -200 -207 0 -433 59 -715 187
-538 245 -1062 676 -1360 1119 -263 390 -289 707 -69 848 108 69 293 88 501
50z m468 -761 l0 -120 -190 0 -190 0 0 -117 0 -117 -31 30 c-44 41 -159 187
-208 263 -36 56 -41 71 -41 123 l0 58 330 0 330 0 0 -120z m457 -55 c51 -93
96 -171 101 -173 4 -1 51 76 103 173 l94 175 148 0 c144 0 147 0 147 -21 0
-12 -44 -92 -97 -178 -53 -86 -134 -217 -180 -290 l-83 -135 0 -223 0 -224
-132 3 -133 3 -3 228 -2 228 -172 277 c-94 152 -174 289 -176 305 l-4 28 148
-3 148 -3 93 -170z m1254 155 c160 -51 254 -192 253 -380 -1 -143 -61 -264
-164 -330 -77 -49 -127 -60 -276 -60 l-133 0 -3 -137 -3 -138 -132 -3 -133 -3
0 536 0 535 264 0 c236 0 270 -2 327 -20z m-1753 -577 l3 -123 -45 0 c-43 0
-49 4 -165 111 -67 61 -121 117 -121 125 0 12 27 14 163 12 l162 -3 3 -122z
m-924 -1378 c9 -31 23 -69 30 -86 l13 -30 29 85 c21 65 33 86 46 86 16 0 18
-11 18 -100 0 -121 -18 -135 -22 -18 l-3 83 -29 -83 c-16 -46 -34 -82 -41 -82
-7 0 -27 37 -44 83 l-30 82 0 -82 c-1 -48 -5 -83 -11 -83 -6 0 -10 40 -10 100
0 90 2 100 18 100 13 0 23 -15 36 -55z m1880 49 c31 -12 15 -22 -31 -21 -42 2
-48 -1 -51 -20 -3 -17 5 -24 47 -38 27 -9 52 -23 55 -31 19 -49 -7 -84 -63
-84 -44 0 -82 23 -65 40 8 8 14 7 24 -5 16 -20 64 -19 81 1 19 23 0 47 -45 57
-21 5 -44 19 -53 33 -14 22 -14 26 1 49 17 25 62 34 100 19z m-254 -30 c0 -8
10 -14 26 -14 14 0 23 -4 19 -10 -3 -5 -15 -10 -26 -10 -16 0 -19 -7 -19 -55
0 -52 1 -55 25 -55 14 0 25 -4 25 -10 0 -14 -54 -12 -68 2 -7 7 -12 35 -12 64
0 33 -5 54 -12 57 -9 4 -10 8 -2 14 6 4 13 16 17 26 8 20 27 14 27 -9z m676
-14 c13 0 24 -4 24 -10 0 -5 -11 -10 -26 -10 -24 0 -25 -2 -22 -52 3 -46 6
-53 26 -56 32 -5 27 -22 -7 -22 -34 0 -41 14 -41 77 0 32 -5 50 -17 59 -16 12
-16 13 -2 14 9 0 20 10 24 23 l8 22 4 -22 c3 -16 11 -23 29 -23z m-1506 12 c0
-5 -3 -12 -7 -16 -4 -4 -6 -22 -4 -41 3 -36 -17 -55 -58 -55 -12 0 -21 -4 -21
-9 0 -11 25 -21 54 -21 42 0 59 -36 30 -64 -18 -19 -94 -22 -112 -4 -16 16
-15 47 1 53 13 6 15 48 3 82 -12 36 9 63 49 63 18 0 37 5 40 10 7 12 25 13 25
2z m-502 -79 c2 -35 7 -63 12 -63 6 0 10 -4 10 -9 0 -4 -28 -8 -62 -7 l-63 1
0 35 c0 32 3 36 43 48 49 16 57 42 13 42 -17 0 -33 -5 -36 -10 -4 -6 -11 -8
-16 -4 -22 13 15 35 55 32 l41 -3 3 -62z m82 55 c0 -9 3 -9 12 0 7 7 24 12 38
12 14 0 31 -5 38 -12 15 -15 16 -138 2 -138 -5 0 -10 22 -10 49 0 64 -7 81
-34 81 -34 0 -46 -20 -46 -77 0 -29 -4 -53 -10 -53 -6 0 -10 32 -10 75 0 43 4
75 10 75 6 0 10 -5 10 -12z m248 -55 c2 -35 7 -63 12 -63 6 0 10 -4 10 -9 0
-4 -28 -8 -62 -7 l-63 1 0 35 c0 32 3 36 43 48 49 16 57 42 13 42 -17 0 -33
-5 -36 -10 -4 -6 -11 -8 -16 -4 -22 13 15 35 55 32 l41 -3 3 -62z m320 55 c7
-7 12 -25 12 -40 0 -27 -2 -28 -50 -28 -34 0 -50 -4 -50 -13 0 -33 53 -50 78
-25 17 17 28 2 12 -17 -16 -19 -70 -20 -96 -1 -23 17 -27 94 -5 119 16 20 81
23 99 5z m158 1 c8 -7 14 -7 19 1 10 16 72 12 79 -6 10 -25 7 -134 -4 -134 -5
0 -10 28 -12 63 -3 57 -5 62 -27 65 -31 5 -41 -12 -41 -75 0 -29 -4 -53 -10
-53 -5 0 -10 24 -10 53 0 63 -10 80 -41 75 -22 -3 -24 -8 -27 -65 -2 -47 -7
-63 -17 -63 -12 0 -15 16 -15 74 l0 73 47 1 c26 1 52 -3 59 -9z m262 -1 c7 -7
12 -25 12 -40 0 -27 -2 -28 -50 -28 -34 0 -50 -4 -50 -13 0 -33 53 -50 78 -25
17 17 28 2 12 -17 -16 -19 -70 -20 -96 -1 -23 17 -27 94 -5 119 16 20 81 23
99 5z m172 -7 c5 -11 10 -45 10 -75 0 -43 -3 -56 -15 -56 -12 0 -15 14 -15 65
l0 65 -29 0 c-34 0 -41 -14 -41 -81 0 -37 -4 -49 -15 -49 -12 0 -15 15 -15 74
l0 73 55 2 c44 1 56 -3 65 -18z m446 -47 c25 -65 20 -67 55 29 7 20 19 37 26
37 9 0 8 -12 -6 -47 -10 -27 -27 -68 -37 -93 -9 -25 -22 -51 -27 -57 -11 -15
-71 -18 -62 -3 3 6 15 10 26 10 31 0 34 29 10 94 -34 91 -36 99 -21 94 7 -2
24 -31 36 -64z m219 51 c0 -5 -17 -8 -38 -7 -32 3 -38 1 -35 -13 1 -10 19 -23
38 -29 38 -12 52 -45 30 -72 -16 -18 -74 -18 -89 -1 -14 18 -2 30 15 16 19
-15 58 -7 62 13 2 12 -8 20 -37 28 -74 20 -63 84 13 78 23 -2 41 -7 41 -13z
m269 -1 c9 -8 16 -26 16 -40 0 -22 -3 -24 -55 -24 -52 0 -54 -1 -46 -22 9 -26
54 -36 76 -18 8 7 15 7 19 1 9 -14 -26 -31 -63 -31 -36 0 -61 31 -61 75 0 46
25 75 65 75 18 0 41 -7 49 -16z m76 4 c0 -9 3 -9 12 0 15 15 65 16 74 1 4 -8
9 -8 17 0 15 15 60 14 75 -1 15 -15 16 -138 2 -138 -5 0 -10 24 -10 53 0 63
-10 80 -41 75 -22 -3 -24 -8 -27 -65 -2 -47 -7 -63 -17 -63 -12 0 -15 15 -15
65 0 63 -1 65 -25 65 -30 0 -45 -30 -45 -91 0 -21 -4 -39 -10 -39 -6 0 -10 32
-10 75 0 43 4 75 10 75 6 0 10 -5 10 -12z"/>
<path d="M3520 2565 l0 -155 101 0 c115 0 155 13 182 60 29 49 33 119 9 174
-28 63 -61 76 -192 76 l-100 0 0 -155z"/>
<path d="M1870 946 c0 -30 13 -40 41 -31 31 10 21 49 -13 53 -24 3 -28 0 -28
-22z"/>
<path d="M1855 830 c-11 -19 6 -30 46 -30 32 0 39 3 39 20 0 17 -7 20 -39 20
-22 0 -43 -4 -46 -10z"/>
<path d="M1402 908 c-41 -11 -41 -41 0 -46 22 -3 29 2 34 23 8 33 6 34 -34 23z"/>
<path d="M1732 908 c-41 -11 -41 -41 0 -46 22 -3 29 2 34 23 8 33 6 34 -34 23z"/>
<path d="M2027 963 c-19 -19 -5 -33 34 -33 33 0 40 3 35 16 -3 9 -6 18 -6 20
0 7 -56 5 -63 -3z"/>
<path d="M2447 963 c-19 -19 -5 -33 34 -33 33 0 40 3 35 16 -3 9 -6 18 -6 20
0 7 -56 5 -63 -3z"/>
<path d="M3550 950 c-10 -19 -8 -20 36 -20 38 0 45 3 40 16 -3 9 -6 18 -6 20
0 2 -13 4 -30 4 -19 0 -33 -7 -40 -20z"/>
</g>
</svg>
